# xmcd CD database file
#
# Track frame offsets:
#	150
#	20086
#	45149
#	60362
#	70423
#	85201
#	99192
#	115711
#	132390
#	160512
#
# Disc length: 2416 seconds
#
# Revision: 1
# Processed by: cddbd v1.5PL3 Copyright (c) Steve Scherf et al.
# Submitted via: CDex 1.51
#
DISCID=71096e0a
DTITLE=S.E.N.S. - In The Shining Season
DYEAR=1995
DGENRE=New Age
TTITLE0=Pale Blue Story - 5 Years After
TTITLE1=In The Shining Season
TTITLE2=Rain
TTITLE3=High Moon
TTITLE4=Requiem
TTITLE5=Pale Blue Story - Piano Solo
TTITLE6=Shot
TTITLE7=Last Lesson
TTITLE8=Waltz Of The Wind
TTITLE9=Prime Season
EXTD=YEAR: 1995
EXTT0=
EXTT1=
EXTT2=
EXTT3=
EXTT4=
EXTT5=
EXTT6=
EXTT7=
EXTT8=
EXTT9=
PLAYORDER=
